# xmcd CD database file
#
# Track frame offsets:
#	150
#	15757
#	39420
#	73331
#	97748
#	118200
#	149811
#	177572
#	194205
#	220244
#	245031
#	269703
#
# Disc length: 3958 seconds
#
# Revision: 0
# Processed by: cddbd v1.5.2PL0 Copyright (c) Steve Scherf et al.
# Submitted via: CDex 1.70beta2
#
DISCID=c30f740c
DTITLE=Walter Lang Trio - BEST MASTER QUALITIES
DYEAR=2009
DGENRE=Jazz
TTITLE0=COUNTRY
TTITLE1=KEIN SCHONER LAND
TTITLE2=MYRIAD
TTITLE3=YESTERDAY
TTITLE4=JAMES
TTITLE5=GARRET WALTZ
TTITLE6=NOWHERE MAN
TTITLE7=SEPTEMBER SONG
TTITLE8=FIRST SONG
TTITLE9=36TH-10TH
TTITLE10=I WILL
TTITLE11=MONDSCHEIN SONATE
EXTD=YEAR: 2009
EXTT0=
EXTT1=
EXTT2=
EXTT3=
EXTT4=
EXTT5=
EXTT6=
EXTT7=
EXTT8=
EXTT9=
EXTT10=
EXTT11=
PLAYORDER=
